<?xml version="1.0" encoding="utf-8"?>
<svg viewBox="0 0 1058 577" xmlns="http://www.w3.org/2000/svg">
  <defs>
    <style>
      .cls-1 {
        fill: #171111;
        fill-rule: evenodd;
      }
    </style>
  </defs>
  <path id="Color_Fill_1" data-name="Color Fill 1" class="cls-1" d="M826,80q144.986,143.985,290,288c-0.33,1.333-.67,2.667-1,4Q972.02,514.487,829,657l-4-1L347,177l-3,1L155,367q0.5,2,1,4L345,560l4-1L526,381l3,1,45,48L348,657l-4-1L58,370l1-4L346,81h2L826,560l4-1,190-191L828,177,648,356l-3-1-45-48Z" transform="matrix(1, 0, 0, 1, -58, -80)" style="fill: rgb(255, 255, 255);"/>
</svg>